# xmcd
#
# Track frame offsets:
#	150
#	16462
#	31722
#	44886
#	57930
#	73264
#	87878
#	99234
#	113198
#	125040
#
# Disc length: 1841 seconds
#
# Revision: 1
# Processed by: cddbd v1.5.2PL0 Copyright (c) Steve Scherf et al.
# Submitted via: EZCDAudioConverter 8.0.7.1
#
DISCID=88072f0a
DTITLE=Julio Jaramillo - Historia Musical
DYEAR=2003
DGENRE=Latin
TTITLE0=Nuestro Juramento
TTITLE1=De Cigarro En Cigarro
TTITLE2=Te Odio Y Te Quiero
TTITLE3=Dolor De Ausencia
TTITLE4=Amor Eterno
TTITLE5=Odio En La Sangre
TTITLE6=Yo Vivo Mi Vida
TTITLE7=Sombras
TTITLE8=Amor Sin Esperanza
TTITLE9=Devuelveme El Corazon
EXTD=
EXTT0=
EXTT1=
EXTT2=
EXTT3=
EXTT4=
EXTT5=
EXTT6=
EXTT7=
EXTT8=
EXTT9=
PLAYORDER=
